HIERARCHY
ROOT Hips
{
	OFFSET 0.053599 88.859886 3.107447
	CHANNELS 6 Xposition Yposition Zposition Zrotation Yrotation Xrotation 
	JOINT Spine
	{
		OFFSET -0.000000 8.814246 -2.080107
		CHANNELS 3 Zrotation Yrotation Xrotation
		JOINT Spine1
		{
			OFFSET 0.000000 8.844141 0.000000
			CHANNELS 3 Zrotation Yrotation Xrotation
			JOINT Spine2
			{
				OFFSET -0.000000 11.682268 0.000000
				CHANNELS 3 Zrotation Yrotation Xrotation
				JOINT Spine3
				{
					OFFSET 0.000000 11.746700 0.000000
					CHANNELS 3 Zrotation Yrotation Xrotation
					JOINT Neck
					{
						OFFSET -0.000000 17.658264 -0.000000
						CHANNELS 3 Zrotation Yrotation Xrotation
						JOINT Neck1
						{
							OFFSET -0.000000 5.101515 -0.000000
							CHANNELS 3 Zrotation Yrotation Xrotation
							JOINT Head
							{
								OFFSET 0.000000 5.101515 0.000000
								CHANNELS 3 Zrotation Yrotation Xrotation
								JOINT HeadEnd
								{
									OFFSET 0.000000 11.655085 0.000000
									CHANNELS 3 Zrotation Yrotation Xrotation
									End Site
									{
										OFFSET 0.000000 0.000000 0.000000
									}
								}
							}
						}
					}
					JOINT RightShoulder
					{
						OFFSET -2.625389 11.175210 0.000000
						CHANNELS 3 Zrotation Yrotation Xrotation
						JOINT RightArm
						{
							OFFSET -0.000000 10.434715 -0.000000
							CHANNELS 3 Zrotation Yrotation Xrotation
							JOINT RightForeArm
							{
								OFFSET -0.000000 29.628420 0.000000
								CHANNELS 3 Zrotation Yrotation Xrotation
								JOINT RightHand
								{
									OFFSET -0.000000 22.857611 0.000000
									CHANNELS 3 Zrotation Yrotation Xrotation
									JOINT RightHandThumb1
									{
										OFFSET -2.867323 3.959563 2.944291
										CHANNELS 3 Zrotation Yrotation Xrotation
										JOINT RightHandThumb2
										{
											OFFSET 0.000000 3.350399 0.000000
											CHANNELS 3 Zrotation Yrotation Xrotation
											JOINT RightHandThumb3
											{
												OFFSET 0.000000 3.756509 -0.000000
												CHANNELS 3 Zrotation Yrotation Xrotation
												JOINT RightHandThumb4
												{
													OFFSET 0.000000 3.147345 0.000000
													CHANNELS 3 Zrotation Yrotation Xrotation
													End Site
													{
														OFFSET 0.000000 0.000000 0.000000
													}
												}
											}
										}
									}
									JOINT RightHandIndex1
									{
										OFFSET -0.086752 10.030893 2.345280
										CHANNELS 3 Zrotation Yrotation Xrotation
										JOINT RightHandIndex2
										{
											OFFSET -0.000000 4.061090 0.000000
											CHANNELS 3 Zrotation Yrotation Xrotation
											JOINT RightHandIndex3
											{
												OFFSET -0.000000 3.248873 0.000000
												CHANNELS 3 Zrotation Yrotation Xrotation
												JOINT RightHandIndex4
												{
													OFFSET 0.000000 2.639709 -0.000000
													CHANNELS 3 Zrotation Yrotation Xrotation
													End Site
													{
														OFFSET 0.000000 0.000000 0.000000
													}
												}
											}
										}
									}
									JOINT RightHandMiddle1
									{
										OFFSET 0.104102 9.502952 0.006768
										CHANNELS 3 Zrotation Yrotation Xrotation
										JOINT RightHandMiddle2
										{
											OFFSET 0.000000 4.568727 0.000000
											CHANNELS 3 Zrotation Yrotation Xrotation
											JOINT RightHandMiddle3
											{
												OFFSET 0.000000 3.654981 -0.000000
												CHANNELS 3 Zrotation Yrotation Xrotation
												JOINT RightHandMiddle4
												{
													OFFSET -0.000000 2.741236 -0.000000
													CHANNELS 3 Zrotation Yrotation Xrotation
													End Site
													{
														OFFSET 0.000000 0.000000 0.000000
													}
												}
											}
										}
									}
									JOINT RightHandRing1
									{
										OFFSET 0.086752 8.921708 -2.267442
										CHANNELS 3 Zrotation Yrotation Xrotation
										JOINT RightHandRing2
										{
											OFFSET -0.000000 4.061090 0.000000
											CHANNELS 3 Zrotation Yrotation Xrotation
											JOINT RightHandRing3
											{
												OFFSET 0.000000 3.654981 -0.000000
												CHANNELS 3 Zrotation Yrotation Xrotation
												JOINT RightHandRing4
												{
													OFFSET 0.000000 2.741236 -0.000000
													CHANNELS 3 Zrotation Yrotation Xrotation
													End Site
													{
														OFFSET 0.000000 0.000000 0.000000
													}
												}
											}
										}
									}
									JOINT RightHandPinky1
									{
										OFFSET -0.173504 7.976997 -4.467199
										CHANNELS 3 Zrotation Yrotation Xrotation
										JOINT RightHandPinky2
										{
											OFFSET 0.000000 3.350399 -0.000000
											CHANNELS 3 Zrotation Yrotation Xrotation
											JOINT RightHandPinky3
											{
												OFFSET -0.000000 2.842763 0.000000
												CHANNELS 3 Zrotation Yrotation Xrotation
												JOINT RightHandPinky4
												{
													OFFSET -0.000000 2.639709 0.000000
													CHANNELS 3 Zrotation Yrotation Xrotation
													End Site
													{
														OFFSET 0.000000 0.000000 0.000000
													}
												}
											}
										}
									}
									JOINT RightForeArmEnd
									{
										OFFSET 0.000000 0.000000 0.000000
										CHANNELS 3 Zrotation Yrotation Xrotation
										End Site
										{
											OFFSET 0.000000 0.000000 0.000000
										}
									}
								}
								JOINT RightArmEnd
								{
									OFFSET 0.000000 0.000000 0.000000
									CHANNELS 3 Zrotation Yrotation Xrotation
									End Site
									{
										OFFSET 0.000000 0.000000 0.000000
									}
								}
							}
						}
					}
					JOINT LeftShoulder
					{
						OFFSET 2.625389 11.175210 0.000000
						CHANNELS 3 Zrotation Yrotation Xrotation
						JOINT LeftArm
						{
							OFFSET 0.000000 10.813635 -0.000000
							CHANNELS 3 Zrotation Yrotation Xrotation
							JOINT LeftForeArm
							{
								OFFSET 0.000000 28.724781 0.000000
								CHANNELS 3 Zrotation Yrotation Xrotation
								JOINT LeftHand
								{
									OFFSET 0.644384 25.716167 -0.328871
									CHANNELS 3 Zrotation Yrotation Xrotation
									JOINT LeftHandThumb1
									{
										OFFSET 2.867323 3.959563 2.944291
										CHANNELS 3 Zrotation Yrotation Xrotation
										JOINT LeftHandThumb2
										{
											OFFSET 0.000000 3.350399 0.000000
											CHANNELS 3 Zrotation Yrotation Xrotation
											JOINT LeftHandThumb3
											{
												OFFSET -0.000000 3.756509 0.000000
												CHANNELS 3 Zrotation Yrotation Xrotation
												JOINT LeftHandThumb4
												{
													OFFSET -0.000000 3.100000 0.000000
													CHANNELS 3 Zrotation Yrotation Xrotation
													End Site
													{
														OFFSET 0.000000 0.000000 0.000000
													}
												}
											}
										}
									}
									JOINT LeftHandIndex1
									{
										OFFSET 0.086752 10.030893 2.345280
										CHANNELS 3 Zrotation Yrotation Xrotation
										JOINT LeftHandIndex2
										{
											OFFSET -0.000000 4.061090 -0.000000
											CHANNELS 3 Zrotation Yrotation Xrotation
											JOINT LeftHandIndex3
											{
												OFFSET 0.000000 3.248873 -0.000000
												CHANNELS 3 Zrotation Yrotation Xrotation
												JOINT LeftHandIndex4
												{
													OFFSET 0.000000 2.639709 -0.000000
													CHANNELS 3 Zrotation Yrotation Xrotation
													End Site
													{
														OFFSET 0.000000 0.000000 0.000000
													}
												}
											}
										}
									}
									JOINT LeftHandMiddle1
									{
										OFFSET -0.104102 9.502952 0.006768
										CHANNELS 3 Zrotation Yrotation Xrotation
										JOINT LeftHandMiddle2
										{
											OFFSET -0.000000 4.568727 -0.000000
											CHANNELS 3 Zrotation Yrotation Xrotation
											JOINT LeftHandMiddle3
											{
												OFFSET 0.000000 3.654981 0.000000
												CHANNELS 3 Zrotation Yrotation Xrotation
												JOINT LeftHandMiddle4
												{
													OFFSET 0.000000 2.741236 -0.000000
													CHANNELS 3 Zrotation Yrotation Xrotation
													End Site
													{
														OFFSET 0.000000 0.000000 0.000000
													}
												}
											}
										}
									}
									JOINT LeftHandRing1
									{
										OFFSET -0.086752 8.921708 -2.267442
										CHANNELS 3 Zrotation Yrotation Xrotation
										JOINT LeftHandRing2
										{
											OFFSET 0.000000 4.061090 0.000000
											CHANNELS 3 Zrotation Yrotation Xrotation
											JOINT LeftHandRing3
											{
												OFFSET 0.000000 3.654981 0.000000
												CHANNELS 3 Zrotation Yrotation Xrotation
												JOINT LeftHandRing4
												{
													OFFSET 0.000000 2.741236 0.000000
													CHANNELS 3 Zrotation Yrotation Xrotation
													End Site
													{
														OFFSET 0.000000 0.000000 0.000000
													}
												}
											}
										}
									}
									JOINT LeftHandPinky1
									{
										OFFSET 0.173504 7.976997 -4.467199
										CHANNELS 3 Zrotation Yrotation Xrotation
										JOINT LeftHandPinky2
										{
											OFFSET -0.000000 3.350399 -0.000000
											CHANNELS 3 Zrotation Yrotation Xrotation
											JOINT LeftHandPinky3
											{
												OFFSET 0.000000 2.842763 0.000000
												CHANNELS 3 Zrotation Yrotation Xrotation
												JOINT LeftHandPinky4
												{
													OFFSET -0.000000 2.639709 -0.000000
													CHANNELS 3 Zrotation Yrotation Xrotation
													End Site
													{
														OFFSET 0.000000 0.000000 0.000000
													}
												}
											}
										}
									}
									JOINT LeftForeArmEnd
									{
										OFFSET 0.000000 0.000000 0.000000
										CHANNELS 3 Zrotation Yrotation Xrotation
										End Site
										{
											OFFSET 0.000000 0.000000 0.000000
										}
									}
								}
								JOINT LeftArmEnd
								{
									OFFSET 0.000000 0.000000 0.000000
									CHANNELS 3 Zrotation Yrotation Xrotation
									End Site
									{
										OFFSET 0.000000 0.000000 0.000000
									}
								}
							}
						}
					}
				}
			}
		}
	}
	JOINT RightUpLeg
	{
		OFFSET -11.289943 0.000000 0.000000
		CHANNELS 3 Zrotation Yrotation Xrotation
		JOINT RightLeg
		{
			OFFSET 0.000000 -38.200325 0.000000
			CHANNELS 3 Zrotation Yrotation Xrotation
			JOINT RightFoot
			{
				OFFSET -0.000000 -39.900856 -0.000000
				CHANNELS 3 Zrotation Yrotation Xrotation
				JOINT RightToeBase
				{
					OFFSET 0.000000 0.000000 15.261641
					CHANNELS 3 Zrotation Yrotation Xrotation
					JOINT RightToeBaseEnd
					{
						OFFSET 0.000000 0.000000 7.370709
						CHANNELS 3 Zrotation Yrotation Xrotation
						End Site
						{
							OFFSET 0.000000 0.000000 0.000000
						}
					}
				}
				JOINT RightLegEnd
				{
					OFFSET 0.000000 0.000000 0.000000
					CHANNELS 3 Zrotation Yrotation Xrotation
					End Site
					{
						OFFSET 0.000000 0.000000 0.000000
					}
				}
			}
			JOINT RightUpLegEnd
			{
				OFFSET 0.000000 0.000000 0.000000
				CHANNELS 3 Zrotation Yrotation Xrotation
				End Site
				{
					OFFSET 0.000000 0.000000 0.000000
				}
			}
		}
	}
	JOINT LeftUpLeg
	{
		OFFSET 11.315661 -0.000000 0.000000
		CHANNELS 3 Zrotation Yrotation Xrotation
		JOINT LeftLeg
		{
			OFFSET -0.000000 -38.200325 -0.000000
			CHANNELS 3 Zrotation Yrotation Xrotation
			JOINT LeftFoot
			{
				OFFSET 0.000000 -39.900856 -0.000000
				CHANNELS 3 Zrotation Yrotation Xrotation
				JOINT LeftToeBase
				{
					OFFSET -0.000000 -0.000000 15.261641
					CHANNELS 3 Zrotation Yrotation Xrotation
					JOINT LeftToeBaseEnd
					{
						OFFSET 0.000000 -0.000000 7.539996
						CHANNELS 3 Zrotation Yrotation Xrotation
						End Site
						{
							OFFSET 0.000000 0.000000 0.000000
						}
					}
				}
				JOINT LeftLegEnd
				{
					OFFSET 0.000000 0.000000 0.000000
					CHANNELS 3 Zrotation Yrotation Xrotation
					End Site
					{
						OFFSET 0.000000 0.000000 0.000000
					}
				}
			}
			JOINT LeftUpLegEnd
			{
				OFFSET 0.000000 0.000000 0.000000
				CHANNELS 3 Zrotation Yrotation Xrotation
				End Site
				{
					OFFSET 0.000000 0.000000 0.000000
				}
			}
		}
	}
}
MOTION
Frames: 4
Frame Time: 0.016667
0.255187 88.667427 2.730543 0.247276 -0.265627 -10.206845 0.807831 0.109117 7.074281 -0.991216 0.423644 3.435941 0.180017 -0.730362 4.124061 -1.298589 0.245066 5.164224 3.381909 -0.687634 5.515824 0.601767 0.580486 -2.981321 -0.100408 -0.763657 -20.645153 0.000000 0.000000 0.000000 91.770416 0.049267 9.483047 69.908394 -22.020554 0.219275 0.074040 18.525438 38.411724 -10.952209 0.814129 -6.352994 16.193817 31.412291 65.822739 -4.109549 -5.117570 -9.315581 -2.976590 -3.377467 -6.267321 0.000000 0.000000 0.000000 -17.841866 -5.890275 12.126892 0.790975 0.492774 0.624350 0.495150 0.067661 0.671432 0.000000 0.000000 0.000000 -17.481083 -0.443705 7.093654 -0.126024 0.509991 0.212759 0.178095 0.013232 0.199932 0.000000 0.000000 0.000000 -16.385204 7.311193 1.104982 -0.056409 -0.994291 -0.409002 -0.171733 -0.019122 -0.278033 0.000000 0.000000 0.000000 -15.437000 15.343490 -4.969284 0.171910 -1.922687 -1.189070 0.075637 0.017004 -0.959638 0.000000 0.000000 0.000000 0.000000 0.000000 0.000000 0.000000 0.000000 0.000000 -89.890602 -0.115204 4.790059 -69.729713 14.105351 -7.012557 -0.117692 -12.453783 61.254177 17.287130 2.392342 -10.221959 -15.107249 -31.819328 67.012482 2.823251 2.831937 -5.547731 1.902461 1.968772 -3.980908 0.000000 0.000000 0.000000 20.180172 -12.538568 17.189465 -0.614716 0.568305 -0.226194 -0.600466 0.108658 -0.287740 0.000000 0.000000 0.000000 19.785816 -7.071644 10.858950 -0.649956 0.526780 -0.132485 -1.036602 0.036080 -0.107642 0.000000 0.000000 0.000000 17.378895 1.477240 3.107437 -2.147824 -1.038257 0.299903 -2.142882 -0.047068 0.244534 0.000000 0.000000 0.000000 12.628468 11.412894 -5.006795 -3.893451 -1.991429 1.175204 -3.495728 0.023668 1.055094 0.000000 0.000000 0.000000 0.000000 0.000000 0.000000 0.000000 0.000000 0.000000 -0.749943 -9.140579 14.069818 -0.082548 -0.700828 5.352045 -3.228269 -7.686823 17.196079 -0.789156 0.826940 -18.917324 0.000000 0.000000 0.000000 0.000000 0.000000 0.000000 0.000000 0.000000 0.000000 -1.815130 -6.202277 8.568655 0.055694 0.268614 10.401426 3.934438 -1.230402 16.880030 0.232678 -0.405955 -20.738190 0.000000 0.000000 0.000000 0.000000 0.000000 0.000000 0.000000 0.000000 0.000000 
0.253619 88.661415 2.727084 0.254713 -0.237325 -10.216624 0.820789 0.106878 7.081893 -1.004199 0.426486 3.459518 0.159834 -0.713649 4.167814 -1.303576 0.248291 5.210888 3.425230 -0.720110 5.533814 0.610021 0.558868 -2.969202 -0.092172 -0.768839 -20.611731 0.000000 0.000000 0.000000 91.745026 0.038767 9.450809 69.810188 -21.500690 0.039662 0.046838 18.746832 39.662010 -11.647756 0.488010 -6.067147 16.183681 31.415400 65.832253 -4.102393 -5.105039 -9.293767 -2.971207 -3.367124 -6.246669 0.000000 0.000000 0.000000 -17.903700 -5.870644 12.274272 0.751411 0.492574 0.624507 0.457678 0.068214 0.674584 0.000000 0.000000 0.000000 -17.537956 -0.430494 7.204579 -0.161728 0.511193 0.211472 0.152271 0.014515 0.198943 0.000000 0.000000 0.000000 -16.415482 7.311116 1.124492 -0.066403 -0.996028 -0.407360 -0.177719 -0.020387 -0.275763 0.000000 0.000000 0.000000 -15.441576 15.347513 -5.019486 0.189312 -1.924572 -1.176761 0.092383 0.014158 -0.947079 0.000000 0.000000 0.000000 0.000000 0.000000 0.000000 0.000000 0.000000 0.000000 -89.891907 -0.108071 4.728694 -69.684601 13.491085 -7.102694 -0.143939 -12.695600 62.286015 17.760561 2.496821 -9.597304 -15.108399 -31.818010 67.009995 2.829755 2.841443 -5.559382 1.908322 1.975132 -3.988268 0.000000 0.000000 0.000000 20.093210 -12.522354 17.290720 -0.565129 0.571427 -0.211388 -0.552917 0.111473 -0.275864 0.000000 0.000000 0.000000 19.690035 -7.054234 10.951884 -0.614401 0.527644 -0.127404 -1.005215 0.037160 -0.103837 0.000000 0.000000 0.000000 17.218718 1.502336 3.148572 -2.150158 -1.039684 0.296537 -2.145426 -0.048145 0.241972 0.000000 0.000000 0.000000 12.410333 11.457933 -4.997271 -3.948652 -1.993520 1.168264 -3.544111 0.022127 1.050914 0.000000 0.000000 0.000000 0.000000 0.000000 0.000000 0.000000 0.000000 0.000000 -0.763648 -9.160695 14.097579 -0.081501 -0.700063 5.320462 -3.214465 -7.660682 17.161741 -0.786322 0.831730 -18.888901 0.000000 0.000000 0.000000 0.000000 0.000000 0.000000 0.000000 0.000000 0.000000 -1.800709 -6.176573 8.563375 0.056782 0.272889 10.394626 3.924441 -1.270854 16.859671 0.233561 -0.410784 -20.729790 0.000000 0.000000 0.000000 0.000000 0.000000 0.000000 0.000000 0.000000 0.000000 
0.253707 88.656357 2.725363 0.262466 -0.214806 -10.229402 0.836351 0.103581 7.091547 -1.017263 0.428824 3.484259 0.140305 -0.695458 4.213635 -1.313027 0.251811 5.257676 3.463562 -0.751257 5.553233 0.617442 0.534801 -2.954346 -0.083390 -0.775027 -20.575291 0.000000 0.000000 0.000000 91.727547 0.024286 9.413560 69.682121 -20.990513 -0.145769 0.017791 18.964663 40.961559 -12.331540 0.083225 -5.783722 16.176125 31.417496 65.838348 -4.098444 -5.098642 -9.281258 -2.968575 -3.360793 -6.232749 0.000000 0.000000 0.000000 -17.930162 -5.858559 12.409587 0.715358 0.493499 0.620437 0.422654 0.069861 0.673651 0.000000 0.000000 0.000000 -17.559175 -0.423855 7.304927 -0.195951 0.512760 0.208337 0.128095 0.016181 0.196446 0.000000 0.000000 0.000000 -16.417801 7.306709 1.136950 -0.076067 -0.998378 -0.403495 -0.181690 -0.022109 -0.271802 0.000000 0.000000 0.000000 -15.430978 15.349736 -5.071016 0.207894 -1.928364 -1.158097 0.110193 0.009740 -0.928971 0.000000 0.000000 0.000000 0.000000 0.000000 0.000000 0.000000 0.000000 0.000000 -89.895035 -0.100107 4.661652 -69.641327 12.876266 -7.196624 -0.165777 -12.939942 63.330788 18.206919 2.629555 -8.950921 -15.109434 -31.816652 67.006973 2.836413 2.851151 -5.571394 1.914212 1.981640 -3.996157 0.000000 0.000000 0.000000 19.993105 -12.504611 17.397884 -0.513858 0.575497 -0.194050 -0.506355 0.115160 -0.261635 0.000000 0.000000 0.000000 19.582563 -7.034701 11.051155 -0.576643 0.528925 -0.121242 -0.971801 0.038605 -0.099200 0.000000 0.000000 0.000000 17.055113 1.528647 3.196583 -2.147323 -1.041633 0.291673 -2.142133 -0.049611 0.238338 0.000000 0.000000 0.000000 12.194678 11.502364 -4.977468 -3.996441 -1.997029 1.157792 -3.585733 0.019262 1.043857 0.000000 0.000000 0.000000 0.000000 0.000000 0.000000 0.000000 0.000000 0.000000 -0.780207 -9.180498 14.130201 -0.080324 -0.699070 5.285732 -3.199279 -7.629191 17.124666 -0.783538 0.836670 -18.858076 0.000000 0.000000 0.000000 0.000000 0.000000 0.000000 0.000000 0.000000 0.000000 -1.786101 -6.146490 8.561137 0.057969 0.277610 10.388232 3.913463 -1.307974 16.837965 0.234363 -0.416331 -20.722342 0.000000 0.000000 0.000000 0.000000 0.000000 0.000000 0.000000 0.000000 0.000000 
0.255531 88.652199 2.725216 0.270678 -0.196803 -10.244621 0.853398 0.099516 7.102793 -1.030238 0.430414 3.509849 0.121836 -0.677102 4.260842 -1.325428 0.255063 5.303379 3.494870 -0.778904 5.575387 0.624187 0.510556 -2.937255 -0.074465 -0.782102 -20.538057 0.000000 0.000000 0.000000 91.716667 0.006809 9.371330 69.534470 -20.489231 -0.335609 -0.013370 19.175587 42.299099 -12.992585 -0.374433 -5.508098 16.171923 31.418274 65.840103 -4.098825 -5.099730 -9.280778 -2.969453 -3.359385 -6.227423 0.000000 0.000000 0.000000 -17.918613 -5.854440 12.530970 0.684340 0.495407 0.612415 0.391286 0.072476 0.668959 0.000000 0.000000 0.000000 -17.542229 -0.424425 7.394061 -0.226914 0.514638 0.203513 0.107410 0.018154 0.192566 0.000000 0.000000 0.000000 -16.387165 7.297414 1.142984 -0.084468 -1.001259 -0.397573 -0.182985 -0.024201 -0.266375 0.000000 0.000000 0.000000 -15.399643 15.349526 -5.122817 0.228257 -1.933831 -1.133777 0.129350 0.003966 -0.906007 0.000000 0.000000 0.000000 0.000000 0.000000 0.000000 0.000000 0.000000 0.000000 -89.897614 -0.092097 4.589699 -69.606956 12.264449 -7.291176 -0.183259 -13.182755 64.382339 18.620384 2.774833 -8.299479 -15.111957 -31.814747 67.001968 2.845088 2.864035 -5.588571 1.921561 1.990174 -4.007977 0.000000 0.000000 0.000000 19.871811 -12.484634 17.508511 -0.465881 0.580157 -0.175320 -0.465088 0.119382 -0.246087 0.000000 0.000000 0.000000 19.455229 -7.011931 11.154223 -0.541425 0.530503 -0.114457 -0.941309 0.040297 -0.094080 0.000000 0.000000 0.000000 16.878433 1.557834 3.250093 -2.144996 -1.043934 0.285804 -2.138529 -0.051344 0.233979 0.000000 0.000000 0.000000 11.972453 11.548245 -4.949862 -4.042404 -2.001541 1.144890 -3.625714 0.015498 1.034729 0.000000 0.000000 0.000000 0.000000 0.000000 0.000000 0.000000 0.000000 0.000000 -0.799937 -9.200214 14.167237 -0.079068 -0.697777 5.249133 -3.183239 -7.593060 17.085857 -0.780877 0.841477 -18.825720 0.000000 0.000000 0.000000 0.000000 0.000000 0.000000 0.000000 0.000000 0.000000 -1.772388 -6.112235 8.560396 0.059154 0.282511 10.384635 3.902730 -1.340633 16.815350 0.234903 -0.422278 -20.716148 0.000000 0.000000 0.000000 0.000000 0.000000 0.000000 0.000000 0.000000 0.000000 
